# xmcd
#
# Track frame offsets: 
#        150
#        31490
#        65560
#        95375
#        128720
#        168540
#        184785
#        219725
#        245695
#        287805
#        310505
#
# Disc length: 4384 seconds
#
# Revision: 3
# Processed by: cddbd v1.5.2PL0 Copyright (c) Steve Scherf et al.
# Submitted via: ExactAudioCopy v1.3
#
DISCID=a0111e0b
DTITLE=Yanni - Live At The Acropolis
DYEAR=1993
DGENRE=New Age
TTITLE0=Santorini
TTITLE1=Keys To Imagination
TTITLE2=Until The Last Moment
TTITLE3=The Rain Must Fall
TTITLE4=Acroyali - Standingin Motion (Medley)
TTITLE5=One Man's Dream
TTITLE6=With Attraction
TTITLE7=Nostalgia
TTITLE8=Swept Away
TTITLE9=Reflections Of Passion
TTITLE10=Aria
EXTD=YEAR: 1993
EXTT0=
EXTT1=
EXTT2=
EXTT3=
EXTT4=
EXTT5=
EXTT6=
EXTT7=
EXTT8=
EXTT9=
EXTT10=
PLAYORDER=
